<svg width="24" height="24" viewBox="0 0 24 24" fill="none" xmlns="http://www.w3.org/2000/svg">
<path d="M20.4853 3.51469C18.2188 1.24823 15.2053 0 12 0C8.79469 0 5.78123 1.24823 3.51469 3.51469C1.24823 5.78123 0 8.79469 0 12C0 15.2053 1.24823 18.2188 3.51469 20.4853C5.78123 22.7518 8.79469 24 12 24C15.2053 24 18.2188 22.7518 20.4853 20.4853C22.7518 18.2188 24 15.2053 24 12C24 8.79469 22.7518 5.78123 20.4853 3.51469V3.51469ZM12 1.40625C13.8827 1.40625 15.652 1.90055 17.1858 2.76525L16.9831 4.03978C16.8828 4.6703 16.5368 5.21527 16.009 5.57428C15.481 5.9333 14.847 6.05461 14.2238 5.91623C13.3241 5.71617 12.3878 5.85806 11.5877 6.31533L10.4826 6.94678C9.87666 7.293 9.17016 7.39041 8.49309 7.22123C7.335 6.93169 6.51652 5.93616 6.45647 4.74394L6.37008 3.03009C8.00213 2.00208 9.93267 1.40625 12 1.40625V1.40625ZM6.02686 20.7444C3.23906 18.8341 1.40625 15.6273 1.40625 12C1.40625 11.2329 1.48894 10.4849 1.64456 9.76369L4.63397 11.5912C5.0265 11.8312 5.30344 12.2276 5.39367 12.6788C5.60855 13.7533 6.38789 14.6361 7.42753 14.9827C7.99922 15.1732 8.36587 15.7462 8.29936 16.3452C8.12794 17.888 7.42898 19.3423 6.33131 20.44L6.02686 20.7444ZM12 22.5938C10.3044 22.5938 8.70098 22.1927 7.27856 21.4815L7.32567 21.4343C8.6483 20.1117 9.49045 18.3594 9.69703 16.5004C9.83634 15.2468 9.06891 14.0474 7.87223 13.6485C7.3102 13.4611 6.88884 12.9839 6.77269 12.4029C6.60572 11.5683 6.09356 10.8352 5.36747 10.3913L2.04952 8.36302C2.66508 6.68414 3.69455 5.20345 5.01305 4.04409L5.05191 4.81472C5.09648 5.69897 5.41725 6.52791 5.97956 7.21181C6.54183 7.89577 7.29305 8.37075 8.15203 8.58548C8.48255 8.66812 8.8177 8.709 9.15094 8.709C9.85669 8.709 10.5538 8.52572 11.1802 8.16773L12.2854 7.53628C12.7812 7.25302 13.3612 7.16512 13.9188 7.28902C14.9245 7.51261 15.9478 7.31653 16.7998 6.73716C17.6518 6.15778 18.2101 5.27827 18.372 4.26066L18.4738 3.62048C19.8663 4.69875 20.9835 6.11564 21.7014 7.74675L19.9935 8.62031C19.3234 8.96306 18.8206 9.57469 18.6138 10.2983C18.5025 10.6878 18.2242 11 17.8499 11.155C17.4758 11.31 17.0581 11.2861 16.704 11.0894L15.6994 10.5313C14.8609 10.0654 13.8292 10.0826 13.0066 10.5761C11.9162 11.2304 11.4355 12.5298 11.8376 13.7362L12.3575 15.2957C12.5481 15.8675 12.5047 16.4794 12.2351 17.0185C11.795 17.8986 11.7261 18.8968 12.0411 19.8291C12.3562 20.7614 13.0163 21.5132 13.9001 21.946L14.5752 22.2767C13.7504 22.4834 12.8879 22.5938 12 22.5938V22.5938ZM16.4326 21.6205L14.5185 20.6831C13.9741 20.4164 13.5674 19.9532 13.3732 19.3789C13.1792 18.8045 13.2217 18.1896 13.4927 17.6474C13.9303 16.7722 14.0009 15.7792 13.6915 14.851L13.1716 13.2915C12.9795 12.7152 13.2092 12.0945 13.73 11.7819C14.1229 11.5463 14.6158 11.538 15.0164 11.7605L16.021 12.3187C16.7524 12.725 17.6152 12.7744 18.388 12.4542C19.1609 12.1341 19.7361 11.4891 19.9659 10.6846C20.066 10.3343 20.3094 10.0382 20.6338 9.8723L22.1841 9.07936C22.4506 10.0075 22.5938 10.9874 22.5938 12C22.5938 16.2597 20.0663 19.9396 16.4326 21.6205V21.6205Z" fill="#FF6600"/>
</svg>
